<?xml version="1.0" encoding="utf-8"?>
<!-- Generator: Adobe Illustrator 21.1.0, SVG Export Plug-In . SVG Version: 6.00 Build 0)  -->
<svg version="1.1" id="Layer_1" xmlns="http://www.w3.org/2000/svg" xmlns:xlink="http://www.w3.org/1999/xlink" x="0px" y="0px"
	 viewBox="0 0 512 512" style="enable-background:new 0 0 512 512;" xml:space="preserve">
<style type="text/css">
	.st0{fill:#FFFFFF;}
</style>
<path class="st0" d="M442,142.4C437.5,73.5,380.2,19,310.2,19c-59.5,0-109.8,39.3-126.3,93.4c-9.2-3.5-19.3-5.4-29.7-5.4
	c-42.8,0-78.2,32.1-83.3,73.5c-0.3,0-0.6,0-0.9,0c-36.9,0-66.7,29.9-66.7,66.7S33.1,314,70,314c4.4,0,8.7-0.4,12.8-1.2
	c20.2,27.1,52.4,44.6,88.7,44.6c31.2,0,59.4-13,79.5-33.8c15.2,15.1,36,24.4,59,24.4c31.4,0,58.8-17.4,73-43.1
	c11.7,5.8,24.8,9.1,38.8,9.1c48,0,87-38.9,87-87C508.7,185.9,480.3,151.5,442,142.4z"/>
</svg>
