<?xml version="1.0" standalone="no"?>
<!DOCTYPE svg PUBLIC "-//W3C//DTD SVG 20010904//EN"
 "http://www.w3.org/TR/2001/REC-SVG-20010904/DTD/svg10.dtd">
<svg version="1.0" xmlns="http://www.w3.org/2000/svg"
 width="886.000000pt" height="886.000000pt" viewBox="0 0 886.000000 886.000000"
 preserveAspectRatio="xMidYMid meet">
<metadata>
Created by potrace 1.11, written by Peter Selinger 2001-2013
</metadata>
<g transform="translate(0.000000,886.000000) scale(0.100000,-0.100000)"
fill="#000000" stroke="none">
<path d="M3928 8519 c-13 -7 -64 -16 -105 -18 -7 -1 -12 -7 -10 -13 1 -7 -5
-11 -13 -9 -23 7 -105 5 -126 -3 -16 -6 -15 -9 14 -23 17 -8 32 -20 32 -25 0
-5 -4 -7 -9 -3 -24 14 -97 15 -116 1 -20 -15 -20 -15 1 -16 11 0 24 -3 27 -6
10 -10 -35 -45 -50 -40 -24 10 -26 -22 -3 -51 23 -30 11 -45 -17 -22 -14 12
-15 11 -8 -11 4 -14 16 -32 27 -41 24 -19 18 -24 -37 -35 -22 -5 -42 -9 -45
-9 -3 -1 -24 -5 -47 -9 -23 -4 -42 -11 -42 -14 3 -20 -2 -32 -11 -27 -12 7
-13 -5 -2 -23 5 -7 16 -10 25 -6 9 3 17 2 17 -4 0 -5 11 -13 25 -16 38 -10 30
-24 -12 -24 -34 1 -58 -3 -113 -17 -8 -2 -21 -4 -27 -4 -7 -1 -13 -11 -13 -24
0 -17 8 -25 32 -32 17 -6 33 -15 35 -21 4 -13 -30 -15 -38 -2 -3 5 -13 2 -22
-6 -8 -9 -21 -16 -27 -16 -14 0 -69 -29 -87 -46 -9 -8 -9 -14 0 -23 11 -11 0
-16 -30 -12 -7 1 -13 -3 -13 -9 0 -5 5 -10 10 -10 6 0 10 -4 10 -10 0 -5 -8
-10 -17 -10 -19 0 -163 -137 -163 -155 0 -3 -5 -11 -10 -18 -41 -49 -70 -92
-70 -105 0 -11 3 -12 15 -2 8 6 19 8 26 4 8 -5 4 -13 -12 -26 l-24 -18 26 9
c26 10 39 6 39 -11 0 -4 -10 -8 -22 -8 -26 0 -86 -57 -116 -112 -19 -33 -19
-37 -4 -43 14 -5 13 -9 -10 -21 -16 -8 -29 -19 -29 -24 -3 -20 -4 -25 -12 -37
-5 -7 -5 -13 0 -13 4 0 3 -4 -3 -8 -5 -4 -21 -25 -34 -47 -13 -22 -27 -42 -30
-45 -12 -10 -19 -40 -10 -40 6 0 10 -7 10 -17 0 -9 -3 -13 -7 -10 -8 9 -63
-42 -63 -58 0 -6 -10 -29 -21 -50 -56 -106 -71 -139 -60 -143 6 -2 -8 -26 -30
-53 -32 -37 -39 -52 -31 -62 9 -10 6 -17 -9 -31 -16 -13 -18 -20 -9 -31 8 -10
8 -15 -3 -22 -14 -8 -42 -53 -33 -53 3 0 1 -13 -4 -29 -7 -24 -5 -29 6 -24 17
6 20 -32 3 -43 -8 -4 -7 -9 2 -14 10 -7 10 -11 0 -24 -7 -8 -15 -29 -17 -46
-3 -17 -11 -54 -19 -83 -9 -34 -10 -56 -4 -64 7 -8 4 -18 -10 -32 -17 -17 -19
-25 -10 -47 7 -19 7 -29 -1 -34 -6 -4 -13 -22 -16 -41 -3 -19 -7 -39 -9 -46
-2 -7 2 -19 10 -27 13 -12 12 -18 -1 -44 -8 -17 -17 -53 -20 -79 -3 -26 -7
-53 -9 -60 -2 -6 2 -17 10 -23 9 -8 11 -19 6 -33 -5 -12 -5 -34 -1 -49 5 -14
6 -29 3 -32 -3 -3 0 -12 6 -20 7 -8 10 -20 6 -26 -11 -18 -13 -84 -3 -91 6 -4
4 -16 -5 -30 -8 -13 -13 -33 -11 -44 2 -11 6 -47 9 -80 7 -78 22 -116 43 -108
12 5 14 2 8 -18 -14 -45 -7 -129 12 -129 6 0 12 -7 12 -16 0 -8 -4 -12 -10 -9
-5 3 -10 3 -10 -2 0 -4 -13 -16 -30 -25 -31 -18 -60 -73 -60 -117 1 -169 8
-370 14 -386 4 -11 12 -29 16 -40 15 -37 28 -107 24 -129 -16 -78 -23 -515
-11 -626 8 -65 52 -157 88 -183 14 -10 47 -20 75 -22 27 -1 57 -6 66 -10 28
-11 51 -85 63 -200 2 -22 7 -56 10 -75 11 -61 15 -93 21 -170 3 -41 7 -102 9
-135 6 -75 9 -100 31 -200 9 -44 18 -93 19 -110 5 -46 14 -91 26 -122 6 -15
12 -36 14 -45 2 -10 11 -34 20 -55 134 -303 178 -496 153 -662 -5 -30 -16 -71
-26 -90 -21 -46 -118 -183 -170 -240 l-40 -45 -86 -2 c-114 -3 -167 -31 -220
-114 -37 -57 -76 -92 -106 -96 -68 -7 -173 -43 -190 -64 -9 -13 -55 -34 -79
-38 -28 -4 -66 -22 -118 -58 -53 -36 -131 -75 -162 -80 -14 -3 -54 -14 -88
-24 -34 -11 -86 -21 -115 -24 -29 -3 -82 -15 -118 -27 -36 -12 -73 -23 -82
-25 -10 -2 -28 -6 -41 -9 -12 -3 -35 -8 -51 -11 -16 -2 -32 -7 -35 -9 -4 -2
-26 -6 -49 -10 -23 -3 -61 -13 -85 -21 -63 -23 -162 -44 -225 -49 -58 -5 -118
-11 -207 -21 -27 -3 -66 -7 -85 -9 -19 -2 -53 -6 -75 -9 -22 -3 -58 -8 -80
-11 -22 -2 -50 -7 -62 -10 -13 -3 -33 -7 -45 -11 -13 -3 -34 -7 -48 -10 -14
-3 -42 -9 -62 -15 -55 -14 -117 -23 -170 -23 l-48 -1 0 -332 0 -333 4430 0
4430 0 0 275 0 275 -27 6 c-16 3 -37 9 -48 12 -24 7 -30 8 -75 17 -48 8 -241
65 -265 78 -11 6 -63 12 -115 14 -120 5 -120 5 -120 14 0 8 -57 38 -82 43 -7
2 -26 9 -43 16 -61 25 -140 41 -325 64 -55 7 -103 16 -112 22 -4 3 -18 7 -30
10 -13 2 -36 7 -53 10 -16 4 -41 7 -55 8 -14 1 -30 4 -35 7 -6 3 -30 7 -55 8
-25 2 -75 17 -115 36 -102 48 -145 57 -234 50 -92 -9 -86 -9 -141 -1 -134 18
-168 33 -207 92 -18 27 -39 56 -46 64 -8 8 -22 29 -32 47 -27 47 -77 66 -156
59 -97 -9 -133 -6 -182 19 -16 8 -33 12 -38 9 -5 -3 -9 0 -9 6 0 6 -4 9 -8 6
-11 -7 -56 24 -82 57 -12 15 -27 27 -33 27 -7 0 -30 20 -52 45 -40 46 -58 55
-128 61 -30 2 -46 11 -69 39 -17 19 -35 35 -40 35 -5 0 -15 6 -22 13 -7 6 -27
23 -44 36 -18 13 -32 30 -32 37 0 8 -4 14 -8 14 -4 0 -26 35 -47 78 -36 69
-40 84 -39 147 1 70 6 102 23 163 5 18 10 33 10 35 -2 21 25 79 68 146 64 98
102 170 108 201 2 12 13 37 24 56 19 32 34 78 45 134 2 14 9 38 15 54 7 16 14
59 16 95 5 61 11 106 15 106 1 0 3 9 4 20 2 11 6 39 10 63 4 23 9 71 11 105 2
34 6 73 9 87 19 86 27 150 31 234 5 111 27 134 95 99 62 -31 134 -12 195 51
57 59 74 99 81 191 1 22 6 69 9 105 3 36 8 101 10 145 7 145 16 194 69 349
l44 128 -5 141 c-6 188 -7 197 -16 197 -5 0 -6 4 -3 8 6 10 -30 91 -52 115
-19 22 -54 37 -96 43 -16 2 -34 8 -40 14 -11 11 -12 79 -2 155 8 54 14 126 20
220 2 33 7 83 11 110 4 28 8 136 9 240 1 105 4 195 8 201 4 6 5 47 2 90 -6 88
-8 164 -6 209 2 29 -4 169 -10 265 -2 25 -7 50 -11 57 -4 6 -3 14 1 17 8 5
-14 86 -31 113 -4 6 -3 15 3 18 8 5 8 11 0 20 -7 8 -9 19 -5 25 4 6 -2 26 -13
44 -13 22 -17 37 -10 44 6 6 -3 19 -29 38 -21 16 -44 37 -51 47 -8 10 -24 28
-36 40 -12 12 -21 27 -20 32 5 14 -16 38 -51 61 -16 10 -36 27 -44 37 -7 10
-19 16 -27 13 -8 -3 -14 1 -14 10 0 8 4 13 9 10 5 -3 11 1 15 9 3 8 1 15 -5
15 -6 0 -7 5 -4 10 3 6 2 10 -4 10 -5 0 -16 11 -23 24 -29 53 -68 104 -117
153 -28 29 -51 59 -51 67 0 9 -4 16 -10 16 -5 0 -10 4 -10 9 0 5 -17 27 -37
49 -21 22 -46 51 -55 63 -13 17 -21 20 -29 12 -6 -6 -19 -9 -27 -5 -25 9 -62
44 -62 58 0 7 -31 43 -69 81 -49 48 -82 94 -116 158 -51 96 -68 117 -91 108
-8 -3 -14 1 -14 11 0 9 -4 16 -8 16 -4 0 -15 12 -24 28 -20 31 -54 70 -83 92
-13 10 -10 3 9 -22 16 -21 25 -42 20 -49 -4 -8 -3 -9 4 -5 7 4 12 2 12 -3 0
-6 -7 -11 -15 -11 -8 0 -15 8 -15 17 0 9 -3 14 -6 10 -8 -8 -166 110 -239 178
-11 11 -27 20 -35 19 -8 0 -31 6 -50 14 -19 7 -44 15 -55 16 -28 4 -152 46
-201 68 -22 10 -46 18 -52 18 -7 0 -12 4 -12 8 0 5 -11 14 -25 20 -22 10 -25
9 -25 -6 0 -10 9 -28 20 -40 28 -30 25 -35 -14 -28 -18 4 -45 2 -60 -4 -22 -8
-31 -5 -60 20 -18 17 -36 30 -38 30 -2 0 -26 21 -54 46 -89 85 -160 130 -242
158 -90 30 -133 37 -154 25z m5 -46 c14 -8 7 -32 -15 -47 -22 -16 -46 -9 -76
21 -23 23 3 44 47 37 20 -3 39 -8 44 -11z m173 -68 c30 -14 64 -35 75 -46 21
-21 26 -45 7 -32 -7 4 -18 8 -25 9 -59 9 -193 64 -193 80 0 33 51 29 136 -11z
m128 -81 c9 -3 14 -10 11 -15 -7 -10 -35 0 -35 12 0 11 3 11 24 3z m496 -94
c8 -5 11 -13 6 -17 -5 -4 -11 -2 -13 5 -3 6 -9 10 -14 6 -5 -3 -9 0 -9 5 0 13
10 14 30 1z m85 -60 c4 -6 -1 -10 -10 -10 -9 0 -14 4 -11 8 3 5 -6 15 -19 22
-14 7 -25 17 -25 22 0 10 55 -26 65 -42z m-90 18 c13 -13 31 -29 40 -37 25
-20 11 -24 -30 -7 -20 9 -39 25 -42 36 -3 11 -9 18 -13 15 -5 -3 -11 -1 -15 5
-12 20 36 10 60 -12z m-1107 -56 c2 -7 -6 -12 -17 -12 -12 0 -21 -5 -21 -11 0
-5 -4 -7 -10 -4 -5 3 -10 1 -10 -4 0 -9 -9 -9 -49 -2 -7 2 43 38 59 43 22 7
43 3 48 -10z m82 -12 c0 -5 -4 -10 -10 -10 -5 0 -10 5 -10 10 0 6 5 10 10 10
6 0 10 -4 10 -10z m-295 -106 c0 -5 -8 -10 -17 -12 -11 -2 -18 3 -18 11 0 9 8
14 18 13 9 -2 17 -7 17 -12z m2582 -896 c-3 -8 -6 -5 -6 6 -1 11 2 17 5 13 3
-3 4 -12 1 -19z"/>
</g>
</svg>
