<?xml version="1.0" standalone="no"?>
<!DOCTYPE svg PUBLIC "-//W3C//DTD SVG 20010904//EN"
 "http://www.w3.org/TR/2001/REC-SVG-20010904/DTD/svg10.dtd">
<svg version="1.0" xmlns="http://www.w3.org/2000/svg"
 width="512.000000pt" height="512.000000pt" viewBox="0 0 512.000000 512.000000"
 preserveAspectRatio="xMidYMid meet">
<metadata>
Created by potrace 1.11, written by Peter Selinger 2001-2013
</metadata>
<g transform="translate(0.000000,512.000000) scale(0.100000,-0.100000)"
fill="#000000" stroke="none">
<path d="M2058 4770 c-2 -6 -28 -13 -58 -16 -123 -11 -142 -15 -164 -29 -13
-9 -38 -17 -56 -20 -18 -2 -41 -12 -52 -22 -11 -10 -22 -17 -24 -15 -2 1 -5 2
-6 1 -2 0 -10 -2 -18 -4 -15 -3 -121 -65 -130 -76 -3 -4 -15 -9 -27 -13 -13
-4 -23 -14 -23 -22 0 -8 -4 -12 -10 -9 -10 6 -160 -139 -195 -189 -11 -15 -26
-34 -32 -41 -7 -8 -13 -17 -13 -20 0 -4 -10 -21 -22 -38 -12 -17 -23 -38 -24
-45 -2 -8 -10 -22 -19 -32 -9 -10 -17 -24 -19 -32 -1 -7 -5 -19 -9 -25 -5 -7
-6 -13 -2 -13 3 0 -2 -15 -12 -32 -9 -18 -18 -40 -20 -48 -2 -8 -6 -24 -8 -35
-3 -11 -8 -37 -11 -58 -3 -20 -10 -40 -15 -43 -5 -3 -9 -14 -9 -25 0 -18 -7
-20 -102 -19 -103 1 -192 -11 -228 -30 -10 -6 -23 -10 -27 -9 -4 1 -11 0 -15
-1 -5 -1 -11 -3 -15 -4 -21 -4 -73 -32 -73 -38 0 -5 -9 -8 -20 -8 -11 0 -23
-7 -26 -15 -4 -8 -10 -13 -14 -10 -13 8 -210 -172 -210 -193 0 -5 -9 -17 -20
-27 -11 -10 -20 -26 -20 -37 0 -10 -4 -18 -8 -18 -4 0 -16 -13 -25 -30 -10
-16 -15 -30 -11 -30 3 0 1 -7 -6 -15 -7 -8 -9 -15 -5 -15 4 0 0 -11 -9 -25
-17 -26 -27 -72 -26 -118 0 -16 -6 -43 -15 -60 -17 -34 -21 -143 -5 -149 6 -2
12 -26 15 -53 10 -95 15 -119 31 -136 9 -10 13 -23 9 -28 -3 -6 -1 -11 5 -11
7 0 10 -6 7 -14 -3 -8 1 -20 9 -26 8 -7 14 -18 14 -26 0 -7 22 -42 50 -78 27
-36 50 -69 50 -73 0 -4 15 -20 33 -35 92 -76 151 -120 162 -122 6 -1 24 -9 38
-19 15 -9 32 -17 40 -17 7 0 18 -5 25 -12 7 -7 12 -8 12 -4 0 5 11 1 25 -8 14
-9 42 -20 63 -23 53 -9 3752 -14 3766 -6 6 4 19 9 30 10 10 2 29 12 43 23 14
11 31 20 38 20 22 0 156 141 144 152 -2 2 6 14 19 28 12 13 23 30 23 37 2 15
6 32 8 36 2 1 4 15 6 31 2 16 9 34 14 39 17 17 13 124 -5 152 -9 14 -14 31
-11 40 4 8 2 17 -4 21 -6 3 -8 12 -5 20 3 7 -5 26 -18 41 -23 27 -26 33 -26
52 0 10 -89 100 -120 121 -12 8 -26 14 -31 12 -5 -1 -9 3 -9 10 0 6 -3 8 -6 5
-4 -3 -18 2 -32 13 -13 11 -28 17 -33 14 -5 -3 -14 -2 -20 2 -6 3 -43 8 -82
11 -39 2 -77 9 -83 14 -6 5 -11 27 -12 49 -1 23 -9 54 -17 70 -9 17 -15 31
-14 32 3 8 -15 67 -29 98 -9 19 -17 37 -17 40 -2 11 -29 55 -42 68 -7 8 -11
17 -8 22 3 5 -4 15 -15 23 -11 7 -18 16 -15 18 6 6 -108 127 -163 173 -24 20
-48 33 -53 30 -5 -3 -9 -1 -9 5 0 5 -16 15 -35 22 -19 7 -35 17 -35 23 0 5 -3
6 -6 3 -4 -3 -18 2 -32 13 -13 11 -28 17 -32 15 -5 -3 -11 -1 -15 5 -4 6 -11
8 -16 4 -6 -3 -18 1 -27 10 -24 21 -90 28 -252 28 -160 -1 -215 -7 -247 -27
-13 -9 -28 -13 -33 -10 -5 3 -11 1 -14 -3 -7 -12 -71 -9 -72 3 -1 13 -13 45
-24 66 -5 9 -12 34 -16 55 -3 22 -12 46 -20 54 -7 8 -15 27 -17 41 -6 31 -28
69 -40 69 -4 0 -6 4 -3 9 4 5 -5 23 -19 39 -14 16 -25 35 -25 41 0 6 -9 16
-20 23 -11 7 -20 18 -20 25 0 7 -11 20 -25 29 -14 9 -25 23 -25 30 0 8 -7 14
-16 14 -8 0 -13 4 -10 8 6 9 -29 42 -44 42 -6 0 -10 4 -10 9 0 11 -83 79 -101
83 -8 2 -20 11 -27 21 -7 9 -18 15 -23 12 -5 -4 -9 -1 -9 6 0 7 -3 10 -6 6 -3
-3 -15 3 -27 14 -11 10 -31 19 -44 19 -13 0 -23 3 -23 8 0 10 -50 32 -71 32
-10 0 -21 5 -24 10 -4 6 -10 8 -15 5 -5 -3 -20 1 -32 9 -13 7 -65 19 -117 25
-52 6 -99 15 -105 21 -13 13 -163 13 -168 0z"/>
<path d="M3560 2130 c0 -6 -7 -22 -16 -36 -16 -23 -17 -23 -30 -7 -13 16 -13
15 -5 -7 10 -31 -5 -68 -31 -75 -68 -19 -65 -20 -35 12 15 16 27 33 27 37 0
16 -56 -26 -102 -77 l-46 -51 -44 14 c-28 9 -90 15 -175 15 -73 0 -133 -1
-133 -2 0 -1 20 -12 45 -23 28 -13 43 -25 39 -32 -4 -7 -3 -8 4 -4 7 4 25 -7
42 -26 30 -32 39 -58 21 -58 -5 0 -16 -2 -23 -5 -9 -4 -19 5 -26 22 l-12 28 5
-33 c4 -32 4 -33 -88 -77 -51 -25 -79 -43 -62 -40 80 14 143 17 149 7 11 -19
-29 -52 -89 -73 -33 -11 -67 -22 -75 -25 -13 -4 -13 -6 0 -14 13 -8 13 -13 -2
-37 -9 -15 -25 -32 -35 -38 -83 -45 -113 -68 -119 -92 -4 -15 -20 -46 -36 -69
-16 -24 -35 -63 -42 -89 -8 -25 -26 -61 -41 -80 -14 -20 -21 -35 -14 -35 8 0
7 -5 -3 -17 -19 -22 -58 -105 -58 -122 0 -12 -21 -66 -41 -103 -5 -10 -6 -24
-3 -32 3 -8 0 -24 -6 -36 -11 -21 -19 -104 -23 -247 -1 -53 2 -74 12 -78 7 -3
11 -12 7 -20 -7 -18 30 -250 45 -276 5 -11 13 -67 16 -124 5 -92 8 -105 24
-105 10 0 20 4 23 9 3 5 6 55 6 112 0 57 0 122 1 144 4 108 -1 175 -14 193 -5
6 -6 12 -1 12 5 0 3 4 -5 9 -12 8 -12 13 2 35 20 30 21 58 5 104 -11 28 -11
36 0 39 6 3 10 8 7 13 -3 4 2 13 10 20 17 14 21 35 5 25 -6 -3 -7 1 -4 9 3 9
10 16 14 16 5 0 7 18 6 40 -2 31 3 45 21 62 12 12 23 25 23 30 0 5 12 20 28
34 15 13 20 23 12 22 -16 -3 -21 21 -7 40 7 8 4 12 -9 13 -16 0 -16 2 4 11 21
11 24 18 26 80 1 15 5 30 9 34 4 4 7 16 7 26 0 10 5 18 10 18 6 0 10 5 10 11
0 14 41 53 64 62 9 4 16 12 16 18 0 7 9 9 24 5 20 -5 29 0 46 24 12 16 28 30
36 30 8 0 17 6 20 14 3 8 13 12 25 9 10 -3 19 -1 19 5 0 11 64 27 93 23 9 -1
17 2 17 8 0 6 7 8 15 4 9 -3 24 2 33 11 17 14 19 14 36 -5 10 -12 24 -18 32
-15 9 3 25 1 36 -5 15 -8 19 -8 14 0 -9 14 5 14 38 1 17 -6 26 -6 26 0 0 6 7
10 15 10 8 0 15 -4 15 -9 0 -10 48 -30 72 -29 9 1 15 6 11 11 -3 5 11 8 33 7
67 -4 78 -2 65 14 -8 9 -8 16 -2 20 5 4 13 -3 16 -14 6 -17 14 -21 46 -18 22
2 39 8 39 13 0 6 -4 10 -9 10 -5 0 -12 3 -15 8 -3 4 -3 5 1 2 3 -3 12 0 19 6
8 6 20 9 28 6 8 -3 17 1 20 9 3 8 13 14 23 14 13 0 14 -3 5 -12 -7 -7 -12 -18
-12 -25 0 -10 5 -10 25 -1 13 6 22 15 19 19 -3 5 4 9 15 9 12 0 21 -5 21 -11
0 -8 4 -8 13 -1 7 6 34 8 62 5 28 -3 68 -5 89 -5 23 0 34 -3 27 -8 -10 -5 -9
-9 3 -13 9 -4 16 -3 16 1 0 11 84 4 88 -7 1 -4 16 -7 33 -5 16 2 27 0 24 -5
-3 -5 -1 -12 5 -16 5 -3 10 -1 10 5 0 7 7 5 16 -4 8 -9 20 -16 25 -16 5 0 9
-7 9 -15 0 -8 5 -15 10 -15 6 0 16 -4 23 -10 59 -48 77 -61 77 -54 0 4 9 -2
20 -14 11 -12 20 -26 20 -32 0 -5 5 -10 10 -10 6 0 10 -6 10 -14 0 -7 7 -19
15 -26 8 -6 14 -15 13 -18 -3 -12 25 -62 34 -62 4 0 8 -9 8 -19 0 -11 6 -22
13 -24 10 -4 10 -6 0 -6 -23 -2 -14 -21 25 -56 34 -32 35 -34 12 -30 l-25 4
28 -20 c15 -11 27 -25 27 -31 0 -6 -6 -6 -15 2 -8 7 -15 8 -15 2 0 -5 7 -15
15 -22 12 -10 13 -15 4 -21 -9 -5 -8 -13 4 -33 9 -14 17 -43 17 -64 0 -25 7
-47 20 -62 24 -28 25 -31 5 -24 -9 4 -15 0 -16 -7 0 -8 -2 -27 -4 -44 -1 -16
-1 -24 2 -17 4 10 11 5 24 -15 23 -34 25 -50 4 -33 -11 9 -19 10 -26 3 -8 -8
-7 -13 0 -17 6 -4 11 -1 11 6 1 7 9 3 20 -11 12 -14 17 -28 12 -35 -5 -6 -8
-18 -7 -26 1 -8 3 -30 3 -49 2 -25 6 -32 17 -27 10 4 15 -1 15 -16 0 -37 11
-12 12 28 0 22 -6 55 -15 74 -17 39 -13 55 8 27 13 -17 14 -17 20 3 12 37 9
118 -5 135 -7 8 -10 18 -6 22 3 3 6 1 6 -6 0 -7 4 -10 8 -7 17 10 -4 215 -25
249 -4 7 -6 20 -5 30 2 10 -1 24 -6 30 -8 11 -20 48 -28 87 -2 8 -8 16 -13 18
-6 2 -11 10 -11 18 0 9 -5 12 -11 8 -8 -5 -8 -1 0 13 7 15 6 25 -5 41 -12 17
-12 22 -2 22 17 1 -33 39 -50 40 -7 0 -12 6 -11 13 4 29 -2 47 -15 47 -8 0
-13 -7 -12 -16 0 -9 -6 -19 -14 -22 -12 -3 -12 -2 -3 8 14 15 0 50 -21 50 -8
0 -15 18 -19 50 -3 28 -12 57 -19 65 -33 37 -37 46 -33 78 3 24 -1 41 -13 54
-9 10 -14 14 -9 9 4 -6 7 -17 7 -25 0 -10 -19 4 -47 34 -26 28 -46 53 -45 58
1 4 -2 7 -6 7 -9 0 -60 130 -88 223 -17 57 -17 57 -71 73 -30 9 -62 13 -71 9
-13 -6 -10 -10 16 -17 28 -8 31 -11 22 -28 -7 -13 -7 -20 -1 -20 6 0 8 -7 5
-15 -5 -11 -17 -4 -53 30 -36 35 -53 45 -81 45 -47 1 -72 16 -115 72 -33 45
-90 86 -102 74 -3 -2 4 -15 16 -27 11 -12 19 -25 16 -27 -6 -6 -44 40 -45 54
0 13 -32 24 -71 24 -20 0 -30 8 -39 30 -13 32 -30 49 -30 30z m17 -45 c7 -20
-2 -29 -21 -22 -9 4 -13 13 -10 22 8 19 23 19 31 0z m-17 -55 c11 -7 12 -12 3
-21 -8 -8 -14 -6 -22 10 -12 22 -5 27 19 11z m244 -72 c17 -29 18 -31 2 -19
-9 8 -24 28 -33 45 -22 42 5 20 31 -26z m-349 -4 c-16 -13 -36 -22 -42 -19 -7
2 -18 -5 -24 -16 -6 -11 -13 -18 -16 -15 -10 9 49 71 69 72 10 1 21 4 25 8 3
3 9 3 12 0 3 -3 -7 -17 -24 -30z m36 -21 c-8 -15 -10 -15 -11 -2 0 17 10 32
18 25 2 -3 -1 -13 -7 -23z m-216 -60 c19 -14 19 -15 -4 -8 -18 6 -22 4 -15 -6
4 -8 -15 6 -44 30 -29 24 -52 46 -52 49 0 4 83 -43 115 -65z m320 47 c-5 -26
-14 -40 -26 -40 -14 0 -11 27 7 44 20 21 24 20 19 -4z m-311 -5 c30 -23 15
-25 -24 -5 -26 14 -30 19 -15 19 11 0 29 -6 39 -14z m176 6 c0 -6 -11 -23 -25
-38 l-25 -28 17 38 c16 34 33 49 33 28z m-325 -11 c3 -6 -1 -7 -9 -4 -18 7
-21 14 -7 14 6 0 13 -4 16 -10z m45 -73 c0 -11 -52 26 -71 50 -8 9 5 4 28 -12
24 -17 43 -34 43 -38z m340 27 c-11 -47 -19 -54 -16 -12 4 46 5 48 15 48 5 0
5 -15 1 -36z m416 -15 c19 -21 19 -21 -9 -8 -15 7 -27 16 -27 21 0 14 16 9 36
-13z m200 -55 c7 -37 -1 -84 -15 -84 -16 0 -31 52 -31 108 l1 57 19 -23 c11
-13 22 -39 26 -58z m204 -374 c21 -18 22 -20 3 -11 -16 8 -23 8 -26 -2 -3 -6
-12 5 -21 25 -21 48 -20 55 2 30 9 -12 28 -31 42 -42z m-1540 40 c0 -5 -5 -10
-11 -10 -5 0 -7 5 -4 10 3 6 8 10 11 10 2 0 4 -4 4 -10z m1540 -10 c0 -5 -2
-10 -4 -10 -3 0 -8 5 -11 10 -3 6 -1 10 4 10 6 0 11 -4 11 -10z m30 -69 c0 -6
-4 -13 -10 -16 -5 -3 -10 1 -10 9 0 9 5 16 10 16 6 0 10 -4 10 -9z m135 -331
c-3 -5 -2 -10 3 -10 5 0 12 -9 15 -20 6 -25 -8 -27 -17 -2 -3 9 -9 23 -12 30
-3 6 -1 12 6 12 6 0 8 -4 5 -10z m70 -149 c9 -22 15 -45 12 -53 -3 -8 -9 -3
-17 15 -7 15 -17 27 -21 27 -4 0 -6 11 -5 25 2 35 10 31 31 -14z m24 -146 c0
-5 -4 -3 -9 5 -5 8 -9 22 -9 30 0 16 17 -16 18 -35z m28 -37 c-3 -8 -6 -5 -6
6 -1 11 2 17 5 13 3 -3 4 -12 1 -19z m-2031 -183 c-3 -8 -10 -15 -15 -15 -5 0
-4 11 2 25 12 25 23 16 13 -10z m2041 -137 c-3 -8 -6 -5 -6 6 -1 11 2 17 5 13
3 -3 4 -12 1 -19z m-2044 -53 c-3 -9 -8 -14 -10 -11 -3 3 -2 9 2 15 9 16 15
13 8 -4z"/>
<path d="M4376 1452 c-3 -5 1 -15 9 -22 16 -14 20 -3 6 19 -5 8 -11 9 -15 3z"/>
<path d="M3155 1091 c-11 -5 -30 -7 -42 -5 -12 2 -25 -1 -29 -7 -5 -9 6 -11
44 -6 32 4 54 2 58 -5 4 -7 9 -6 15 3 6 10 9 10 9 2 0 -9 14 -11 47 -7 60 7
68 14 20 15 -49 2 -54 3 -63 12 -9 9 -33 8 -59 -2z"/>
<path d="M2994 1069 c-3 -5 -9 -7 -14 -4 -5 3 -11 1 -15 -5 -3 -5 9 -9 30 -8
41 1 55 13 25 21 -11 3 -23 1 -26 -4z"/>
<path d="M3430 1045 c14 -8 32 -14 40 -14 8 0 0 6 -19 14 -42 19 -54 19 -21 0z"/>
<path d="M3391 952 c-1 -7 9 -17 22 -22 12 -6 44 -26 71 -45 55 -40 78 -46 44
-12 -27 28 -93 67 -113 67 -7 0 -16 6 -18 13 -4 9 -6 9 -6 -1z"/>
<path d="M2887 937 c-3 -9 27 -12 117 -13 66 -1 146 -6 176 -11 40 -7 64 -6
85 3 31 13 31 13 -20 29 -8 2 -17 0 -20 -4 -2 -5 -19 -7 -37 -5 -18 1 -92 5
-165 8 -97 4 -132 2 -136 -7z"/>
<path d="M2887 853 c-15 -15 -5 -20 35 -18 23 1 83 -9 132 -21 50 -13 120 -24
155 -24 78 0 74 12 -6 16 -32 2 -67 8 -78 13 -66 30 -220 53 -238 34z"/>
<path d="M3640 840 l-45 -5 37 -8 c34 -7 118 6 118 19 0 5 -31 3 -110 -6z"/>
<path d="M3480 749 c7 -11 14 -18 17 -15 8 8 -5 36 -17 36 -7 0 -7 -6 0 -21z"/>
<path d="M2844 728 c-5 -7 -18 -18 -29 -24 -11 -6 -24 -25 -29 -43 -5 -17 -13
-31 -18 -31 -5 0 -6 -6 -2 -12 5 -7 7 -27 5 -44 -2 -31 12 -53 23 -35 3 5 15
7 26 4 12 -3 20 0 20 6 0 7 -4 10 -9 7 -5 -4 -7 3 -4 14 3 11 16 23 29 26 13
3 24 10 24 15 0 5 7 6 15 3 8 -4 15 -1 15 5 0 13 68 12 76 -1 3 -4 16 -8 29
-8 13 0 27 -5 31 -11 3 -6 16 -8 27 -5 12 3 27 0 34 -6 16 -13 73 -17 73 -5 0
12 43 4 58 -11 8 -7 18 -10 23 -7 5 4 9 1 9 -5 0 -6 -10 -8 -25 -4 -29 7 -34
-10 -7 -25 25 -15 10 -13 -31 4 -31 13 -36 13 -41 -1 -3 -9 -11 -12 -18 -8
-18 11 -69 13 -62 2 4 -6 -2 -8 -14 -4 -11 4 -23 2 -27 -4 -5 -8 -11 -8 -20 0
-24 20 -69 19 -92 -3 -12 -11 -20 -24 -17 -29 6 -10 -20 -38 -35 -38 -6 0 -10
-3 -9 -7 4 -12 -25 -48 -39 -49 -39 -3 -44 -5 -39 -13 3 -5 -1 -14 -10 -21 -8
-7 -13 -19 -10 -27 3 -7 -1 -13 -10 -13 -8 0 -13 -4 -9 -9 3 -5 1 -12 -5 -16
-5 -3 -8 -19 -5 -34 12 -68 17 -107 16 -121 -7 -78 -5 -104 8 -108 9 -3 11 0
7 7 -4 7 -2 19 5 27 10 12 9 13 -7 7 -17 -6 -17 -5 -5 10 7 9 20 17 27 17 8 0
14 7 14 16 0 14 3 14 15 4 12 -10 15 -9 15 4 0 9 7 19 16 23 9 3 14 13 11 25
-3 10 0 24 7 31 7 6 15 20 19 30 5 14 10 15 26 5 10 -6 17 -18 14 -25 -4 -9 3
-16 16 -20 11 -3 21 -12 21 -20 0 -8 5 -11 11 -7 6 3 4 -8 -5 -24 -12 -23 -13
-33 -4 -38 7 -5 5 -11 -7 -21 -11 -7 -15 -13 -9 -13 5 0 9 -16 8 -34 l-2 -35
178 0 c153 0 179 2 184 16 5 12 9 13 21 3 19 -16 54 -5 37 12 -14 14 12 48 35
48 8 0 13 8 11 17 -2 11 6 22 20 28 13 6 22 18 21 30 -1 17 -2 17 -6 2 -2 -9
-9 -15 -14 -11 -6 3 -3 16 7 31 12 19 15 42 12 88 -4 69 -25 101 -128 203 -51
51 -71 89 -45 89 8 0 15 -4 15 -9 0 -5 10 -8 23 -6 22 3 25 13 16 68 -3 14 -8
31 -13 38 -15 25 -94 45 -161 42 -56 -2 -85 1 -115 12 -13 6 -36 10 -120 24
-14 2 -39 7 -56 10 -21 4 -35 1 -40 -8z m233 -454 c18 -3 46 -1 61 5 54 23 71
22 78 -5 3 -13 11 -24 17 -24 8 0 8 -3 0 -11 -12 -12 -129 -15 -191 -5 -47 9
-58 22 -48 61 l6 25 22 -20 c12 -11 37 -23 55 -26z"/>
<path d="M2757 693 c-10 -9 -9 -33 1 -33 4 0 8 9 9 20 2 21 0 24 -10 13z"/>
<path d="M3620 653 c-8 -26 -16 -53 -18 -60 -2 -7 4 -9 17 -6 12 3 21 13 22
22 0 9 2 24 4 35 2 10 0 27 -4 37 -5 16 -10 10 -21 -28z"/>
<path d="M3393 659 c-5 -5 -8 -21 -5 -35 3 -17 11 -24 27 -24 23 0 23 1 8 33
-9 17 -17 33 -18 34 -1 2 -6 -2 -12 -8z"/>
<path d="M3875 552 c-7 -20 -7 -22 9 -22 8 0 16 -4 18 -9 2 -4 14 -12 27 -16
16 -5 21 -4 17 4 -4 6 0 11 10 11 13 0 14 3 4 15 -7 8 -16 13 -20 10 -5 -3
-10 0 -12 7 -6 17 -46 17 -53 0z"/>
<path d="M2995 550 c-3 -5 -1 -10 4 -10 6 0 11 5 11 10 0 6 -2 10 -4 10 -3 0
-8 -4 -11 -10z"/>
<path d="M3761 544 c0 -11 3 -14 6 -6 3 7 2 16 -1 19 -3 4 -6 -2 -5 -13z"/>
<path d="M2741 534 c0 -11 3 -14 6 -6 3 7 2 16 -1 19 -3 4 -6 -2 -5 -13z"/>
<path d="M4000 514 c-24 -13 -24 -14 -3 -14 12 0 25 -4 28 -10 3 -5 19 -10 34
-10 22 0 30 5 33 23 4 19 0 22 -31 23 -20 0 -47 -5 -61 -12z"/>
<path d="M4567 448 c0 -24 2 -53 2 -65 1 -13 5 -23 10 -23 13 0 10 43 -4 52
-6 5 -6 8 3 8 13 0 16 28 6 54 -11 29 -19 17 -17 -26z"/>
<path d="M3941 421 c-24 -15 -111 -122 -130 -159 -19 -35 -6 -38 25 -6 24 26
25 27 14 5 -15 -29 -7 -114 15 -158 15 -31 40 -48 55 -38 4 3 10 -1 13 -9 6
-16 67 -49 67 -36 0 5 -4 19 -9 33 -8 20 -6 23 11 23 12 -1 23 5 26 13 3 9 0
12 -9 9 -9 -4 -14 2 -15 18 -2 18 3 24 20 24 15 0 17 3 8 8 -18 12 1 58 28 67
12 4 37 4 55 1 19 -4 36 -2 40 4 4 6 -7 10 -27 10 -74 0 -138 13 -138 27 0 8
-4 11 -10 8 -5 -3 -7 0 -4 8 3 9 23 13 67 13 50 -1 69 4 95 22 17 13 32 30 32
38 0 13 5 12 31 -3 35 -20 69 -59 69 -78 0 -14 -44 -35 -78 -38 -12 -1 -22 -5
-22 -10 0 -12 89 -1 106 14 14 11 41 -1 82 -36 l24 -20 -21 53 c-30 76 -68
132 -89 132 -6 0 -12 6 -15 14 -3 7 -32 21 -64 31 -32 9 -70 21 -84 27 -35 13
-143 6 -168 -11z m-59 -123 c-7 -7 -12 -8 -12 -2 0 14 12 26 19 19 2 -3 -1
-11 -7 -17z"/>
<path d="M3496 195 c4 -8 8 -15 10 -15 2 0 4 7 4 15 0 8 -4 15 -10 15 -5 0 -7
-7 -4 -15z"/>
<path d="M4058 193 c7 -3 16 -2 19 1 4 3 -2 6 -13 5 -11 0 -14 -3 -6 -6z"/>
<path d="M2512 156 c7 -8 16 -12 21 -9 11 7 -2 23 -19 23 -12 0 -12 -2 -2 -14z"/>
<path d="M3565 150 c3 -5 8 -10 11 -10 2 0 4 5 4 10 0 6 -5 10 -11 10 -5 0 -7
-4 -4 -10z"/>
<path d="M2466 85 c-3 -9 -6 -32 -6 -51 0 -30 3 -34 25 -34 22 0 25 4 25 33 0
41 -33 79 -44 52z"/>
<path d="M2823 28 c-2 -16 1 -18 10 -9 7 7 8 14 1 21 -6 6 -10 2 -11 -12z"/>
<path d="M4664 24 c3 -9 6 -18 6 -20 0 -2 7 -4 15 -4 13 0 14 4 5 20 -13 24
-35 27 -26 4z"/>
</g>
</svg>
